HIERARCHY
ROOT Hips
{
 OFFSET 0.000000 0.000000 0.000000
 CHANNELS 6 Xposition Yposition Zposition Yrotation Xrotation Zrotation
 JOINT Chest
 {
  OFFSET 0.000000 9.585900 0.002600
  CHANNELS 3 Yrotation Xrotation Zrotation
  JOINT Chest2
  {
   OFFSET 0.000000 9.601200 -0.005300
   CHANNELS 3 Yrotation Xrotation Zrotation
   JOINT Chest3
   {
    OFFSET 0.000000 9.561800 0.000000
    CHANNELS 3 Yrotation Xrotation Zrotation
    JOINT Chest4
    {
     OFFSET 0.000000 9.552100 0.000000
     CHANNELS 3 Yrotation Xrotation Zrotation
     JOINT Neck
     {
      OFFSET 0.000000 14.453000 0.000000
      CHANNELS 3 Yrotation Xrotation Zrotation
      JOINT Head
      {
       OFFSET 0.000000 8.936500 -0.011300
       CHANNELS 3 Yrotation Xrotation Zrotation
       End Site
       {
        OFFSET 0.000000 17.073600 -0.006000
       }
      }
     }
     JOINT RightCollar
     {
      OFFSET -2.921100 9.558500 0.000000
      CHANNELS 3 Yrotation Xrotation Zrotation
      JOINT RightShoulder
      {
       OFFSET -13.519700 0.000000 0.000000
       CHANNELS 3 Yrotation Xrotation Zrotation
       JOINT RightElbow
       {
        OFFSET 0.000000 -29.696600 0.000000
        CHANNELS 3 Yrotation Xrotation Zrotation
        JOINT RightWrist
        {
         OFFSET 0.000000 -24.004700 0.000000
         CHANNELS 3 Yrotation Xrotation Zrotation
         End Site
         {
          OFFSET 0.000000 -17.728500 0.000000
         }
        }
       }
      }
     }
     JOINT LeftCollar
     {
      OFFSET 2.921100 9.558500 0.000000
      CHANNELS 3 Yrotation Xrotation Zrotation
      JOINT LeftShoulder
      {
       OFFSET 13.519700 0.000000 0.000000
       CHANNELS 3 Yrotation Xrotation Zrotation
       JOINT LeftElbow
       {
        OFFSET 0.000000 -29.696600 0.000000
        CHANNELS 3 Yrotation Xrotation Zrotation
        JOINT LeftWrist
        {
         OFFSET 0.000000 -24.004700 0.000000
         CHANNELS 3 Yrotation Xrotation Zrotation
         End Site
         {
          OFFSET 0.000000 -17.728500 0.000000
         }
        }
       }
      }
     }
    }
   }
  }
 }
 JOINT RightHip
 {
  OFFSET -7.771700 -0.012900 -0.001300
  CHANNELS 3 Yrotation Xrotation Zrotation
  JOINT RightKnee
  {
   OFFSET 0.000000 -40.869800 0.001200
   CHANNELS 3 Yrotation Xrotation Zrotation
   JOINT RightAnkle
   {
    OFFSET 0.000000 -39.717900 0.002100
    CHANNELS 3 Yrotation Xrotation Zrotation
    JOINT RightToe
    {
     OFFSET 0.000000 -4.965400 11.033500
     CHANNELS 3 Yrotation Xrotation Zrotation
     End Site
     {
      OFFSET 0.000000 -1.423100 5.872300
     }
    }
   }
  }
 }
 JOINT LeftHip
 {
  OFFSET 7.771700 -0.012900 -0.001300
  CHANNELS 3 Yrotation Xrotation Zrotation
  JOINT LeftKnee
  {
   OFFSET 0.000000 -40.869800 0.001200
   CHANNELS 3 Yrotation Xrotation Zrotation
   JOINT LeftAnkle
   {
    OFFSET 0.000000 -39.717900 0.002100
    CHANNELS 3 Yrotation Xrotation Zrotation
    JOINT LeftToe
    {
     OFFSET 0.000000 -4.965400 11.033500
     CHANNELS 3 Yrotation Xrotation Zrotation
     End Site
     {
      OFFSET 0.000000 -1.423100 5.872300
     }
    }
   }
  }
 }
}
MOTION
Frames: 11
Frame Time: 0.008333
0.000000 85.388000 0.000000 0.000000 -5.767877 0.000000 0.000000 11.653817 0.000000 0.000000 -5.885947 0.000000 0.000000 -0.000000 0.000000 0.000000 -0.000000 0.000000 0.000000 12.528835 0.000000 0.000000 0.711642 0.000000 0.000000 -0.000000 0.000000 0.000000 0.000000 -90.000000 0.000000 -2.309062 0.000000 0.000000 2.309062 0.000000 0.000000 -0.000000 0.000000 0.000000 -0.000000 90.000000 0.000000 -2.309062 0.000000 0.000000 2.309062 0.000000 0.000000 8.520406 0.000000 0.000000 1.905762 0.000000 -0.000000 -4.658285 0.000000 0.000000 -0.000000 0.000000 0.000000 8.520406 0.000000 0.000000 1.905762 0.000000 -0.000000 -4.658285 0.000000 0.000000 -0.000000 0.000000
-16.719052 50.808803 9.465649 163.534606 -5.563041 -0.117225 2.899834 6.991596 1.053952 0.121340 0.320028 0.003445 0.212519 0.560294 0.006556 2.555701 6.694689 0.217299 2.496146 17.275583 0.147430 4.566049 -3.688368 -0.572151 3.947701 5.044246 -0.058496 -6.392648 -14.604842 -6.766183 -32.107019 -82.456528 51.628526 0.921571 5.290588 -27.961854 -5.697125 2.221065 -0.373786 19.099557 -9.343929 3.025418 62.060445 -81.375943 -82.246085 -0.895105 7.913624 11.571708 -4.521408 -74.809035 1.933955 -115.292448 84.358273 -113.342154 -2.975435 -13.316730 -0.745193 -0.386533 0.839850 -0.153620 -10.814245 -77.327493 29.927659 123.567688 79.038787 118.910763 -14.820403 -21.376616 -0.617718 -0.329123 -1.139792 -0.140259
-16.722839 50.808938 9.463890 163.526556 -5.558902 -0.118634 2.911945 6.991531 1.051791 0.121093 0.319681 0.003495 0.211357 0.558479 0.007221 2.553404 6.691103 0.218541 2.491626 17.284258 0.150768 4.567177 -3.689145 -0.570894 3.946609 5.061442 -0.061120 -6.409111 -14.558431 -6.761104 -32.350813 -82.499694 51.889489 0.927820 5.322502 -27.944033 -5.686987 2.230013 -0.372246 19.100277 -9.345914 3.023116 62.020198 -81.377293 -82.163019 -0.889328 7.912219 11.598562 -4.458146 -74.812228 1.898289 -115.202405 84.346822 -113.255230 -2.983778 -13.314133 -0.733846 -0.379577 0.841965 -0.151311 -10.766387 -77.334245 29.884463 123.592047 79.040632 118.942041 -14.804715 -21.405006 -0.603580 -0.313286 -1.120263 -0.150765
-16.726342 50.809049 9.461679 163.527606 -5.556248 -0.125427 2.914971 6.992527 1.056188 0.121920 0.320288 0.002756 0.208467 0.554761 0.009221 2.551820 6.691715 0.216210 2.491376 17.285264 0.154642 4.547995 -3.664050 -0.557032 3.945263 5.075044 -0.059644 -6.410782 -14.557946 -6.757836 -32.382404 -82.504733 51.925508 0.926151 5.357760 -27.922986 -5.675267 2.235563 -0.370684 19.119963 -9.331375 3.017164 62.086438 -81.387782 -82.222699 -0.886458 7.910398 11.620162 -4.428054 -74.812365 1.882125 -115.138392 84.338592 -113.195501 -2.976761 -13.314646 -0.726779 -0.388026 0.844481 -0.148309 -10.781479 -77.337035 29.896186 123.633980 79.048015 118.988171 -14.803286 -21.427916 -0.593915 -0.339437 -1.107081 -0.159771
-16.729240 50.809154 9.458946 163.527295 -5.556286 -0.136269 2.917598 6.993423 1.066635 0.123906 0.321926 0.001131 0.208727 0.556634 0.009239 2.545785 6.686990 0.213053 2.487833 17.296754 0.161778 4.531346 -3.645686 -0.548824 3.948502 5.098290 -0.063605 -6.416582 -14.565590 -6.746575 -32.348164 -82.493810 51.900197 0.925653 5.382031 -27.909287 -5.659886 2.253418 -0.366885 19.149763 -9.306978 3.015126 62.278980 -81.397060 -82.425207 -0.889722 7.903289 11.607323 -4.413826 -74.808863 1.885669 -115.074863 84.328058 -113.136916 -2.977775 -13.315467 -0.712420 -0.389795 0.846310 -0.150404 -10.812329 -77.336423 29.924142 123.681561 79.056413 119.041480 -14.790112 -21.449294 -0.591354 -0.345313 -1.099859 -0.162791
-16.731693 50.809340 9.454072 163.519222 -5.568433 -0.144665 2.931396 7.008900 1.073755 0.120502 0.318871 0.003581 0.210970 0.558505 0.006609 2.538893 6.678881 0.211902 2.480497 17.314006 0.166244 4.515765 -3.624387 -0.537963 3.951605 5.112319 -0.063117 -6.417915 -14.544598 -6.739564 -32.212636 -82.459239 51.785144 0.945429 5.345592 -27.921062 -5.623383 2.281175 -0.371593 19.131016 -9.314407 3.023881 62.332067 -81.393463 -82.465618 -0.877766 7.896412 11.639959 -4.377175 -74.794685 1.872658 -115.047218 84.320681 -113.111808 -2.979733 -13.316028 -0.699416 -0.391955 0.846194 -0.152130 -10.817362 -77.326883 29.932384 123.754649 79.060682 119.123446 -14.770669 -21.463010 -0.594187 -0.357036 -1.107290 -0.162740
-16.734895 50.809155 9.451758 163.525631 -5.563997 -0.151989 2.928148 7.004141 1.073053 0.120145 0.318188 0.007680 0.210524 0.557460 0.006630 2.532092 6.673211 0.211640 2.476467 17.329066 0.170441 4.472132 -3.558714 -0.508014 3.957374 5.123921 -0.061687 -6.425228 -14.501900 -6.739975 -32.346943 -82.465945 51.931833 0.954794 5.345283 -27.922110 -5.605277 2.306565 -0.373872 19.125156 -9.325370 3.026063 62.311481 -81.389969 -82.428287 -0.850669 7.908437 11.723281 -4.354272 -74.797634 1.859209 -115.028311 84.313454 -113.096603 -2.984828 -13.317243 -0.682947 -0.394392 0.846796 -0.153543 -10.841270 -77.332165 29.943448 123.739957 79.055852 119.113081 -14.755280 -21.470196 -0.598560 -0.364259 -1.119809 -0.159550
-16.739113 50.808816 9.449672 163.532514 -5.556590 -0.150141 2.918710 6.996441 1.066870 0.121463 0.317690 0.004865 0.207295 0.554871 0.005488 2.529399 6.669605 0.216384 2.469690 17.345158 0.172989 4.459487 -3.527486 -0.497426 3.967232 5.136142 -0.061677 -6.432351 -14.484488 -6.738691 -32.373894 -82.454966 51.970607 0.941789 5.412197 -27.909567 -5.593904 2.320922 -0.374287 19.127833 -9.326340 3.027265 62.314404 -81.388666 -82.427126 -0.847797 7.909536 11.734313 -4.309105 -74.803893 1.822338 -114.995233 84.305296 -113.068503 -2.997634 -13.324264 -0.669227 -0.388841 0.853232 -0.151653 -10.846120 -77.340945 29.937455 123.730282 79.053543 119.108166 -14.783698 -21.463802 -0.590812 -0.342999 -1.131051 -0.160548
-16.739840 50.808387 9.448849 163.536722 -5.548612 -0.165970 2.913224 6.987437 1.079800 0.123158 0.317106 0.005457 0.206464 0.554754 0.005534 2.522820 6.663829 0.216585 2.453456 17.370310 0.177199 4.459072 -3.499832 -0.494765 3.976730 5.153626 -0.062018 -6.435707 -14.478432 -6.739312 -32.352938 -82.440794 51.958099 0.949771 5.396916 -27.914079 -5.582536 2.336549 -0.374852 19.135047 -9.324174 3.027758 62.335336 -81.387496 -82.450062 -0.846406 7.909261 11.746552 -4.333228 -74.808938 1.860112 -114.945629 84.298081 -113.022008 -3.005480 -13.324571 -0.663214 -0.384473 0.853355 -0.149755 -10.948215 -77.349640 30.035192 123.687539 79.032535 119.062731 -14.792971 -21.445007 -0.592378 -0.359137 -1.147615 -0.162126
-16.740644 50.807899 9.448457 163.538731 -5.539489 -0.178004 2.911333 6.977758 1.090502 0.119185 0.316659 0.003610 0.208870 0.554574 0.006833 2.518671 6.656114 0.217828 2.456552 17.381906 0.177153 4.440360 -3.452756 -0.483264 3.978648 5.187692 -0.051468 -6.428956 -14.499693 -6.749362 -32.254662 -82.422308 51.863283 0.948369 5.419525 -27.907555 -5.560795 2.369023 -0.380273 19.140606 -9.340364 3.027085 62.267827 -81.384198 -82.372433 -0.843653 7.911681 11.743395 -4.346330 -74.816179 1.886215 -114.908299 84.292610 -112.987423 -3.010563 -13.323218 -0.659650 -0.383102 0.852519 -0.147837 -11.021811 -77.359524 30.115276 123.663481 79.023848 119.037381 -14.824576 -21.420305 -0.590415 -0.358192 -1.164404 -0.158445
-16.741512 50.807481 9.447710 163.534603 -5.534405 -0.185454 2.912860 6.970700 1.097720 0.118395 0.313515 0.001934 0.208292 0.553654 0.007164 2.521136 6.654668 0.219624 2.445908 17.400898 0.180611 4.433175 -3.410835 -0.480488 3.975313 5.208093 -0.045632 -6.423294 -14.491827 -6.757617 -32.225496 -82.422136 51.835360 0.947803 5.435874 -27.895381 -5.552431 2.381554 -0.381613 19.142709 -9.345647 3.024683 62.208526 -81.387720 -82.314901 -0.844193 7.945586 11.769829 -4.313124 -74.817874 1.878190 -114.818015 84.281438 -112.895927 -3.025041 -13.328707 -0.651165 -0.372277 0.859297 -0.145386 -11.057108 -77.363352 30.157460 123.650518 79.022643 119.025238 -14.832574 -21.403325 -0.590433 -0.341889 -1.172986 -0.157108
